<svg xmlns="http://www.w3.org/2000/svg" width="320" height="320" viewBox="6 6 108 108" fill="none" role="img" aria-labelledby="title desc">
  <title id="title">Athena unified AI cybersecurity doodle</title>
  <desc id="desc">Pastel doodle combining AI node graph and security shield for a unified platform.</desc>
  <rect x="6" y="6" width="108" height="108" rx="14" fill="#c7d8d3"/>
  <rect x="20" y="20" width="80" height="80" rx="2" fill="#f4f1eb"/>
  <circle cx="47" cy="48" r="5" fill="#f8f7f3" stroke="#15161a" stroke-width="1.4"/>
  <circle cx="62" cy="42" r="5" fill="#f8f7f3" stroke="#15161a" stroke-width="1.4"/>
  <circle cx="75" cy="52" r="5" fill="#f8f7f3" stroke="#15161a" stroke-width="1.4"/>
  <circle cx="59" cy="60" r="6" fill="#e6eef7" stroke="#15161a" stroke-width="1.5"/>
  <path d="M52 47 L57 56 M66 44 L62 55 M70 54 L64 58" stroke="#15161a" stroke-width="1.5" stroke-linecap="round"/>
  <path d="M59 70 L74 76 V87 C74 93 69 98 59 102 C49 98 44 93 44 87 V76 L59 70 Z" fill="#e7f2ea" stroke="#15161a" stroke-width="1.5"/>
  <path d="M54 84 L58 88 L65 80" stroke="#15161a" stroke-width="1.8" stroke-linecap="round" stroke-linejoin="round"/>
</svg>
