<svg xmlns="http://www.w3.org/2000/svg" width="320" height="320" viewBox="6 6 108 108" fill="none" role="img" aria-labelledby="title desc">
  <title id="title">Crypto trading doodle</title>
  <desc id="desc">Pastel doodle showing crypto coins, candlestick chart, and directional trade arrows.</desc>
  <rect x="6" y="6" width="108" height="108" rx="14" fill="#cddbdc"/>
  <rect x="20" y="20" width="80" height="80" rx="2" fill="#f4f1eb"/>
  <rect x="30" y="34" width="60" height="44" rx="4" fill="#f8f7f3" stroke="#15161a" stroke-width="1.4"/>
  <path d="M38 69 V48 M44 65 V54 M50 62 V45 M56 67 V51 M62 58 V43 M68 64 V49 M74 55 V40 M80 60 V46" stroke="#15161a" stroke-width="1.4" stroke-linecap="round"/>
  <path d="M36 70 L48 62 L56 64 L66 54 L79 57" stroke="#15161a" stroke-width="1.9" stroke-linecap="round" stroke-linejoin="round"/>
  <circle cx="36" cy="70" r="2" fill="#15161a"/>
  <circle cx="79" cy="57" r="2" fill="#15161a"/>
  <circle cx="35" cy="89" r="8" fill="#f2d9a0" stroke="#15161a" stroke-width="1.6"/>
  <path d="M32 89 H38 M35 86.3 V91.7" stroke="#15161a" stroke-width="1.5" stroke-linecap="round"/>
  <circle cx="55" cy="89" r="8" fill="#d6e5f3" stroke="#15161a" stroke-width="1.6"/>
  <path d="M52 89 H58 M55 86.3 V91.7" stroke="#15161a" stroke-width="1.5" stroke-linecap="round"/>
  <path d="M75 88 H91" stroke="#15161a" stroke-width="1.8" stroke-linecap="round"/>
  <path d="M87 84 L92 88 L87 92" stroke="#15161a" stroke-width="1.8" stroke-linecap="round" stroke-linejoin="round"/>
</svg>
