<svg xmlns="http://www.w3.org/2000/svg" width="320" height="320" viewBox="6 6 108 108" fill="none" role="img" aria-labelledby="title desc">
  <title id="title">Delta lake analytics doodle</title>
  <desc id="desc">Pastel doodle showing bronze, silver, and gold data layers flowing into analytics dashboard.</desc>
  <rect x="6" y="6" width="108" height="108" rx="14" fill="#d2d1e4"/>
  <rect x="20" y="20" width="80" height="80" rx="2" fill="#f4f1eb"/>
  <ellipse cx="44" cy="40" rx="14" ry="4.8" fill="#eac08d" stroke="#15161a" stroke-width="1.4"/>
  <ellipse cx="44" cy="55" rx="14" ry="4.8" fill="#d6d8df" stroke="#15161a" stroke-width="1.4"/>
  <ellipse cx="44" cy="70" rx="14" ry="4.8" fill="#efdc8e" stroke="#15161a" stroke-width="1.4"/>
  <path d="M58 40 H70 M58 55 H70 M58 70 H70" stroke="#15161a" stroke-width="1.5" stroke-linecap="round"/>
  <path d="M66 37 L71 40 L66 43 M66 52 L71 55 L66 58 M66 67 L71 70 L66 73" stroke="#15161a" stroke-width="1.5" stroke-linecap="round" stroke-linejoin="round"/>
  <rect x="74" y="34" width="18" height="38" rx="2.4" fill="#f8f7f3" stroke="#15161a" stroke-width="1.4"/>
  <path d="M78 64 L82 58 L85 60 L89 52" stroke="#15161a" stroke-width="1.7" stroke-linecap="round" stroke-linejoin="round"/>
  <path d="M78 44 H88 M78 49 H86" stroke="#15161a" stroke-width="1.2" stroke-linecap="round"/>
</svg>
