<svg xmlns="http://www.w3.org/2000/svg" width="320" height="320" viewBox="6 6 108 108" fill="none" role="img" aria-labelledby="title desc">
  <title id="title">SafeMargin insurance AI doodle</title>
  <desc id="desc">Pastel doodle showing a shield, policy card, and AI risk scoring links for cyber insurance.</desc>
  <rect x="6" y="6" width="108" height="108" rx="14" fill="#d8d0e5"/>
  <rect x="20" y="20" width="80" height="80" rx="2" fill="#f4f1eb"/>
  <path d="M60 30 L78 37 V51 C78 61 71 69 60 74 C49 69 42 61 42 51 V37 L60 30 Z" fill="#e5eef6" stroke="#15161a" stroke-width="1.8"/>
  <path d="M53 50 L58 55 L67 45" stroke="#15161a" stroke-width="2" stroke-linecap="round" stroke-linejoin="round"/>
  <rect x="28" y="78" width="28" height="14" rx="2" fill="#f8f7f3" stroke="#15161a" stroke-width="1.3"/>
  <path d="M32 84 H52 M32 88 H48" stroke="#15161a" stroke-width="1.2" stroke-linecap="round"/>
  <rect x="64" y="78" width="28" height="14" rx="2" fill="#f8f7f3" stroke="#15161a" stroke-width="1.3"/>
  <path d="M68 84 L72 80 L76 84 L80 80 L84 84" stroke="#15161a" stroke-width="1.2" stroke-linecap="round" stroke-linejoin="round"/>
  <path d="M56 83 H64 M56 88 H64" stroke="#15161a" stroke-width="1.3" stroke-linecap="round"/>
</svg>
