<svg xmlns="http://www.w3.org/2000/svg" width="320" height="320" viewBox="6 6 108 108" fill="none" role="img" aria-labelledby="title desc">
  <title id="title">SOC AI Bot assistant doodle</title>
  <desc id="desc">Pastel doodle with a bot head, chat bubbles, and compliance shield checks.</desc>
  <rect x="6" y="6" width="108" height="108" rx="14" fill="#cfd4e5"/>
  <rect x="20" y="20" width="80" height="80" rx="2" fill="#f4f1eb"/>
  <rect x="39" y="42" width="42" height="30" rx="8" fill="#f8f7f3" stroke="#15161a" stroke-width="1.8"/>
  <circle cx="53" cy="56" r="3.2" fill="#15161a"/>
  <circle cx="67" cy="56" r="3.2" fill="#15161a"/>
  <path d="M53 64 C57 67 63 67 67 64" stroke="#15161a" stroke-width="1.8" stroke-linecap="round"/>
  <path d="M60 36 V42" stroke="#15161a" stroke-width="1.8" stroke-linecap="round"/>
  <circle cx="60" cy="33" r="3" fill="#f2d9a0" stroke="#15161a" stroke-width="1.4"/>
  <rect x="27" y="49" width="10" height="8" rx="2" fill="#efd8de" stroke="#15161a" stroke-width="1.3"/>
  <rect x="83" y="49" width="10" height="8" rx="2" fill="#d8e8d8" stroke="#15161a" stroke-width="1.3"/>
  <path d="M27 78 H45" stroke="#15161a" stroke-width="1.8" stroke-linecap="round"/>
  <path d="M83 78 H101" stroke="#15161a" stroke-width="1.8" stroke-linecap="round"/>
  <path d="M33 84 H53" stroke="#15161a" stroke-width="1.6" stroke-linecap="round"/>
  <path d="M75 84 H95" stroke="#15161a" stroke-width="1.6" stroke-linecap="round"/>
  <path d="M57 73 L52 80 H68 L63 73" fill="#f8f1d7" stroke="#15161a" stroke-width="1.4" stroke-linejoin="round"/>
</svg>
