<svg xmlns="http://www.w3.org/2000/svg" width="256" height="256" viewBox="6 6 108 108" role="img" aria-labelledby="title desc">
  <title id="title">Compliance Audit Doodle</title>
  <desc id="desc">A pastel doodle card showing a checklist document with compliance stamp and link chain.</desc>
  <rect x="6" y="6" width="108" height="108" rx="16" fill="#d8c7cc"/>
  <path d="M22 26 C40 25 79 25 98 26 C98 50 98 72 98 91 C79 91 40 91 22 90 C22 72 22 49 22 26 Z" fill="#f7f2eb"/>
  <rect x="32" y="30" width="40" height="52" rx="4" fill="#efe7dc" stroke="#101114" stroke-width="1.8"/>
  <path d="M39 41 L43 45 L49 38 M39 52 L43 56 L49 49 M39 63 L43 67 L49 60" stroke="#101114" stroke-width="1.6" stroke-linecap="round" stroke-linejoin="round"/>
  <path d="M53 41 H64 M53 52 H64 M53 63 H64" stroke="#101114" stroke-width="1.3" stroke-linecap="round"/>
  <circle cx="82" cy="53" r="10" fill="none" stroke="#101114" stroke-width="2"/>
  <path d="M76 53 L81 58 L88 49" stroke="#101114" stroke-width="1.8" stroke-linecap="round" stroke-linejoin="round"/>
  <circle cx="48" cy="90" r="4" stroke="#101114" stroke-width="1.6" fill="none"/>
  <circle cx="59" cy="90" r="4" stroke="#101114" stroke-width="1.6" fill="none"/>
  <path d="M52 90 H55" stroke="#101114" stroke-width="1.6" stroke-linecap="round"/>
</svg>
