<svg xmlns="http://www.w3.org/2000/svg" width="560" height="560" viewBox="6 6 108 108" fill="none" role="img" aria-labelledby="title desc">
  <title id="title">Entity SEO knowledge graph doodle</title>
  <desc id="desc">Pastel doodle showing a central brand node connected to citation sources and a search lens with a verified result card.</desc>

  <rect x="6" y="6" width="108" height="108" rx="13" fill="#cfdde0"/>
  <rect x="22" y="20" width="76" height="80" rx="2" fill="#f4f1eb"/>

  <path d="M28 66 L40 60 L54 63 L66 55 L79 59" stroke="#111318" stroke-width="1.8" stroke-linecap="round" stroke-linejoin="round"/>
  <path d="M45 76 L54 63 L67 70 L78 65" stroke="#111318" stroke-width="1.8" stroke-linecap="round" stroke-linejoin="round" opacity="0.95"/>

  <circle cx="40" cy="60" r="3.2" fill="#f8efd3" stroke="#111318" stroke-width="1.4"/>
  <circle cx="54" cy="63" r="4.3" fill="#f6d7df" stroke="#111318" stroke-width="1.4"/>
  <circle cx="66" cy="55" r="3.2" fill="#d7e8d7" stroke="#111318" stroke-width="1.4"/>
  <circle cx="79" cy="59" r="3.2" fill="#dedaf4" stroke="#111318" stroke-width="1.4"/>
  <circle cx="45" cy="76" r="3" fill="#efe1c7" stroke="#111318" stroke-width="1.3"/>
  <circle cx="67" cy="70" r="3.1" fill="#dfedf2" stroke="#111318" stroke-width="1.3"/>
  <circle cx="78" cy="65" r="2.8" fill="#f8efd3" stroke="#111318" stroke-width="1.3"/>

  <circle cx="59.5" cy="49.5" r="11.5" fill="#ffffff" stroke="#111318" stroke-width="2"/>
  <path d="M55.5 49.5 L58.6 52.7 L64.3 46.8" stroke="#111318" stroke-width="2" stroke-linecap="round" stroke-linejoin="round"/>
  <path d="M67.8 57.8 L74.8 64.8" stroke="#111318" stroke-width="2.2" stroke-linecap="round"/>
  <rect x="74.6" y="64.8" width="8.4" height="3.6" rx="1" transform="rotate(45 74.6 64.8)" fill="#f2dbe1" stroke="#111318" stroke-width="1.4"/>

  <rect x="83.5" y="28" width="11" height="11" rx="1.6" fill="#ffffff" stroke="#111318" stroke-width="1.5"/>
  <path d="M86.2 33.6 H90.6" stroke="#111318" stroke-width="1.4" stroke-linecap="round"/>
  <path d="M86.2 36.5 H91.8" stroke="#111318" stroke-width="1.4" stroke-linecap="round"/>
  <circle cx="92.1" cy="33.8" r="1.1" fill="#111318"/>

  <path d="M28 44 C33 39 37 38 42 39" stroke="#111318" stroke-width="1.6" stroke-linecap="round" fill="none"/>
  <path d="M28 49 C35 44 42 43 49 45" stroke="#111318" stroke-width="1.6" stroke-linecap="round" fill="none"/>
  <path d="M28 54 C36 50 44 49 52 51" stroke="#111318" stroke-width="1.6" stroke-linecap="round" fill="none"/>

  <path d="M32 87 C38 83 44 82 50 84" stroke="#111318" stroke-width="1.5" stroke-linecap="round" fill="none" opacity="0.9"/>
  <path d="M36 91 C42 88 49 88 55 90" stroke="#111318" stroke-width="1.5" stroke-linecap="round" fill="none" opacity="0.9"/>
</svg>
