<svg xmlns="http://www.w3.org/2000/svg" width="256" height="256" viewBox="6 6 108 108" role="img" aria-labelledby="title desc">
  <title id="title">Hallucination Guard Doodle</title>
  <desc id="desc">A pastel doodle card with approved retrieval path and blocked noisy path.</desc>
  <rect x="6" y="6" width="108" height="108" rx="16" fill="#b9cec2"/>
  <path d="M22 26 C39 25 78 25 96 26 C96 51 96 73 96 91 C77 91 40 90 22 89 C22 72 22 50 22 26 Z" fill="#f7f2eb"/>
  <circle cx="52" cy="58" r="5.5" fill="#f7f2eb" stroke="#101114" stroke-width="1.7"/>
  <circle cx="70" cy="48" r="4.2" fill="#f7f2eb" stroke="#101114" stroke-width="1.5"/>
  <circle cx="72" cy="69" r="4.2" fill="#f7f2eb" stroke="#101114" stroke-width="1.5"/>
  <path d="M56 57 L66 50 L69 50" stroke="#101114" stroke-width="1.8" stroke-linecap="round"/>
  <path d="M56 59 L66 67 L69 67" stroke="#101114" stroke-width="1.8" stroke-linecap="round"/>
  <path d="M34 43 L47 56" stroke="#101114" stroke-width="1.7" stroke-linecap="round" stroke-dasharray="2 2"/>
  <path d="M33 56 L47 43" stroke="#101114" stroke-width="1.8" stroke-linecap="round"/>
  <rect x="79" y="33" width="15" height="15" rx="2" fill="#efe7dc" stroke="#101114" stroke-width="1.6"/>
  <path d="M82 40 L85 43 L90 37" stroke="#101114" stroke-width="1.3" stroke-linecap="round" stroke-linejoin="round"/>
</svg>
