<svg xmlns="http://www.w3.org/2000/svg" width="256" height="256" viewBox="6 6 108 108" role="img" aria-labelledby="title desc">
  <title id="title">Medallion Pipeline Doodle</title>
  <desc id="desc">A pastel doodle card representing bronze, silver, and gold data stages.</desc>
  <rect x="6" y="6" width="108" height="108" rx="16" fill="#cac9de"/>
  <path d="M22 26 C40 25 80 25 98 26 C99 50 99 73 98 92 C79 92 40 92 22 91 C22 72 22 49 22 26 Z" fill="#f7f2eb"/>
  <ellipse cx="60" cy="42" rx="18" ry="5" fill="#c28a4a" fill-opacity="0.28" stroke="#101114" stroke-width="1.4"/>
  <ellipse cx="60" cy="57" rx="21" ry="5.6" fill="#b5bac5" fill-opacity="0.34" stroke="#101114" stroke-width="1.4"/>
  <ellipse cx="60" cy="76" rx="24" ry="6" fill="#d9ba52" fill-opacity="0.38" stroke="#101114" stroke-width="1.4"/>
  <path d="M85 42 H95 M91 38 L96 42 L91 46" stroke="#101114" stroke-width="1.7" stroke-linecap="round" stroke-linejoin="round"/>
  <path d="M86 57 H96 M92 53 L97 57 L92 61" stroke="#101114" stroke-width="1.7" stroke-linecap="round" stroke-linejoin="round"/>
  <path d="M87 76 H97 M93 72 L98 76 L93 80" stroke="#101114" stroke-width="1.7" stroke-linecap="round" stroke-linejoin="round"/>
</svg>
