<svg xmlns="http://www.w3.org/2000/svg" width="256" height="256" viewBox="6 6 108 108" role="img" aria-labelledby="title desc">
  <title id="title">Platform DevOps Doodle</title>
  <desc id="desc">A pastel doodle card with cloud, gear hint, and CI checklist panel.</desc>
  <rect x="6" y="6" width="108" height="108" rx="16" fill="#c5cdd8"/>
  <path d="M22 26 C40 25 79 25 98 26 C98 50 98 73 98 91 C79 91 40 90 22 89 C22 72 22 50 22 26 Z" fill="#f7f2eb"/>
  <path d="M36 66 C32 56 39 47 52 47 C55 39 67 36 75 43 C84 42 90 49 89 58 C95 61 96 71 89 75 H40 C35 74 33 70 36 66 Z" fill="#e6edf3" stroke="#101114" stroke-width="1.9"/>
  <circle cx="51" cy="58" r="4.5" stroke="#101114" stroke-width="1.6" fill="none"/>
  <path d="M51 52 V64 M45 58 H57" stroke="#101114" stroke-width="1.3" stroke-linecap="round"/>
  <rect x="76" y="34" width="16" height="20" rx="2.2" fill="#efe7dc" stroke="#101114" stroke-width="1.6"/>
  <path d="M79 40 L82 43 L87 37 M79 47 H89" stroke="#101114" stroke-width="1.3" stroke-linecap="round" stroke-linejoin="round"/>
</svg>
