<svg xmlns="http://www.w3.org/2000/svg" width="560" height="560" viewBox="0 0 560 560" fill="none" role="img" aria-labelledby="title desc">
  <title id="title">Agreed gold-layer business metrics</title>
  <desc id="desc">AiRAT metrics catalog with finance-approved KPI definitions and shared gold-layer reporting views.</desc>
  <rect width="560" height="560" fill="#f7f7f5"/>
  <rect x="24" y="24" width="512" height="512" fill="#fff" stroke="#e8e6e1"/>
  <text x="56" y="72" font-family="Inter, system-ui, sans-serif" font-size="15" font-weight="500" fill="#1a1a18">Agreed gold-layer metrics</text>
  <text x="56" y="92" font-family="ui-monospace, monospace" font-size="11" fill="#898683">Finance-approved KPIs &#183; single source of truth</text>
  <rect x="56" y="120" width="136" height="88" rx="8" fill="#fafaf8" stroke="#e8e6e1"/>
  <text x="72" y="148" font-family="Inter, system-ui, sans-serif" font-size="11" fill="#898683">Revenue</text>
  <text x="72" y="176" font-family="Inter, system-ui, sans-serif" font-size="22" font-weight="500" fill="#1a1a18">+18%</text>
  <rect x="208" y="120" width="136" height="88" rx="8" fill="#fafaf8" stroke="#e8e6e1"/>
  <text x="224" y="148" font-family="Inter, system-ui, sans-serif" font-size="11" fill="#898683">Active users</text>
  <text x="224" y="176" font-family="Inter, system-ui, sans-serif" font-size="22" font-weight="500" fill="#46838c">2.4M</text>
  <rect x="360" y="120" width="144" height="88" rx="8" fill="#1a1a18"/>
  <text x="376" y="148" font-family="Inter, system-ui, sans-serif" font-size="11" fill="#928e8b">SLA breaches</text>
  <text x="376" y="176" font-family="Inter, system-ui, sans-serif" font-size="22" font-weight="500" fill="#c8f542">0</text>
  <rect x="56" y="224" width="448" height="256" rx="10" fill="#fafaf8" stroke="#e8e6e1"/>
  <text x="72" y="252" font-family="Inter, system-ui, sans-serif" font-size="12" font-weight="500" fill="#1a1a18">Metric catalog</text>
  <rect x="72" y="268" width="416" height="28" rx="6" fill="#fff" stroke="#e8e6e1"/>
  <rect x="84" y="278" width="96" height="8" rx="4" fill="#c8f542"/>
  <rect x="72" y="308" width="416" height="28" rx="6" fill="#fff" stroke="#e8e6e1"/>
  <rect x="84" y="318" width="128" height="8" rx="4" fill="#2dd4bf"/>
  <rect x="72" y="348" width="416" height="28" rx="6" fill="#fff" stroke="#e8e6e1"/>
  <rect x="84" y="358" width="112" height="8" rx="4" fill="#46838c"/>
  <rect x="72" y="388" width="416" height="28" rx="6" fill="#fff" stroke="#e8e6e1"/>
  <rect x="84" y="398" width="88" height="8" rx="4" fill="#dbd9cd"/>
  <rect x="72" y="428" width="416" height="28" rx="6" fill="#edece7" stroke="#e8e6e1"/>
  <rect x="84" y="438" width="72" height="8" rx="4" fill="#1a1a18" opacity="0.2"/>
  <text x="56" y="522" font-family="ui-monospace, monospace" font-size="10" fill="#b2afae">AiRAT &#183; illustrative</text>
</svg>
