<svg xmlns="http://www.w3.org/2000/svg" width="560" height="560" viewBox="0 0 560 560" fill="none" role="img" aria-labelledby="title desc">
  <title id="title">Custom internal enterprise platforms</title>
  <desc id="desc">AiRAT diagram of RBAC workflows, web and mobile surfaces, and ERP integrations with audit trails.</desc>
  <rect width="560" height="560" fill="#f7f7f5"/>
  <rect x="24" y="24" width="512" height="512" fill="#fff" stroke="#e8e6e1"/>
  <text x="56" y="72" font-family="Inter, system-ui, sans-serif" font-size="15" font-weight="500" fill="#1a1a18">Custom internal platforms</text>
  <text x="56" y="92" font-family="ui-monospace, monospace" font-size="11" fill="#898683">RBAC &#183; workflows &#183; integrations</text>
  <rect x="56" y="120" width="200" height="120" rx="10" fill="#fafaf8" stroke="#e8e6e1"/>
  <text x="72" y="148" font-family="Inter, system-ui, sans-serif" font-size="12" font-weight="500" fill="#1a1a18">RBAC and approvals</text>
  <rect x="72" y="164" width="80" height="24" rx="6" fill="#46838c" opacity="0.25"/>
  <rect x="160" y="164" width="80" height="24" rx="6" fill="#2dd4bf" opacity="0.3"/>
  <rect x="72" y="200" width="168" height="24" rx="6" fill="#c8f542" opacity="0.4"/>
  <rect x="272" y="120" width="232" height="120" rx="10" fill="#1a1a18"/>
  <text x="288" y="148" font-family="Inter, system-ui, sans-serif" font-size="12" font-weight="500" fill="#c8f542">One operational surface</text>
  <rect x="288" y="164" width="88" height="56" rx="6" fill="#f7f7f5" opacity="0.15"/>
  <text x="312" y="198" font-family="Inter, system-ui, sans-serif" font-size="10" fill="#928e8b">web</text>
  <rect x="392" y="164" width="88" height="56" rx="6" fill="#f7f7f5" opacity="0.15"/>
  <text x="412" y="198" font-family="Inter, system-ui, sans-serif" font-size="10" fill="#928e8b">mobile</text>
  <rect x="56" y="256" width="448" height="224" rx="10" fill="#fafaf8" stroke="#e8e6e1"/>
  <text x="72" y="284" font-family="Inter, system-ui, sans-serif" font-size="12" font-weight="500" fill="#1a1a18">Integrations</text>
  <rect x="72" y="304" width="96" height="48" rx="8" fill="#fff" stroke="#e8e6e1"/>
  <text x="120" y="334" text-anchor="middle" font-family="Inter, system-ui, sans-serif" font-size="10" fill="#898683">ERP</text>
  <path d="M168 328h48" stroke="#46838c" stroke-width="2"/>
  <rect x="216" y="304" width="128" height="48" rx="8" fill="#46838c" opacity="0.2"/>
  <text x="280" y="334" text-anchor="middle" font-family="Inter, system-ui, sans-serif" font-size="10" font-weight="500" fill="#1a1a18">platform core</text>
  <path d="M344 328h48" stroke="#46838c" stroke-width="2"/>
  <rect x="392" y="304" width="96" height="48" rx="8" fill="#fff" stroke="#e8e6e1"/>
  <text x="440" y="334" text-anchor="middle" font-family="Inter, system-ui, sans-serif" font-size="10" fill="#898683">CRM</text>
  <text x="72" y="392" font-family="Inter, system-ui, sans-serif" font-size="11" fill="#898683">Retries, idempotency, and audit trails by default</text>
  <rect x="72" y="408" width="200" height="8" rx="4" fill="#2dd4bf" opacity="0.45"/>
  <rect x="72" y="428" width="160" height="8" rx="4" fill="#c8f542" opacity="0.5"/>
  <text x="56" y="522" font-family="ui-monospace, monospace" font-size="10" fill="#b2afae">AiRAT &#183; illustrative</text>
</svg>
