<svg xmlns="http://www.w3.org/2000/svg" width="560" height="560" viewBox="0 0 560 560" fill="none" role="img" aria-labelledby="title desc">
  <title id="title">PII and compliance controls dashboard</title>
  <desc id="desc">AiRAT compliance dashboard with PII redaction metrics, review queues, and declining hallucination rates over quarters.</desc>
  <rect width="560" height="560" fill="#f7f7f5"/>
  <rect x="24" y="24" width="512" height="512" fill="#fff" stroke="#e8e6e1"/>
  <text x="56" y="72" font-family="Inter, system-ui, sans-serif" font-size="15" font-weight="500" fill="#1a1a18">PII and compliance controls</text>
  <text x="56" y="92" font-family="ui-monospace, monospace" font-size="11" fill="#898683">Redaction, review, and audit in one view</text>
  <rect x="56" y="112" width="128" height="88" rx="8" fill="#fafaf8" stroke="#e8e6e1"/>
  <circle cx="88" cy="144" r="14" fill="#2dd4bf" opacity="0.35"/>
  <text x="72" y="168" font-family="Inter, system-ui, sans-serif" font-size="10" fill="#898683">PII redacted</text>
  <text x="72" y="188" font-family="Inter, system-ui, sans-serif" font-size="20" font-weight="500" fill="#1a1a18">12.4k</text>
  <rect x="200" y="112" width="128" height="88" rx="8" fill="#fafaf8" stroke="#e8e6e1"/>
  <circle cx="232" cy="144" r="14" fill="#c8f542" opacity="0.45"/>
  <text x="216" y="168" font-family="Inter, system-ui, sans-serif" font-size="10" fill="#898683">In review</text>
  <text x="216" y="188" font-family="Inter, system-ui, sans-serif" font-size="20" font-weight="500" fill="#46838c">38</text>
  <rect x="344" y="112" width="160" height="88" rx="8" fill="#1a1a18"/>
  <circle cx="376" cy="144" r="14" fill="#f7f7f5" opacity="0.2"/>
  <text x="360" y="168" font-family="Inter, system-ui, sans-serif" font-size="10" fill="#928e8b">Audit events</text>
  <text x="360" y="188" font-family="Inter, system-ui, sans-serif" font-size="20" font-weight="500" fill="#c8f542">100%</text>
  <rect x="56" y="216" width="448" height="264" rx="10" fill="#fafaf8" stroke="#e8e6e1"/>
  <text x="72" y="244" font-family="Inter, system-ui, sans-serif" font-size="12" font-weight="500" fill="#1a1a18">Hallucination rate by quarter</text>
  <rect x="96" y="260" width="48" height="188" rx="4" fill="#dbd9cd"/>
  <rect x="168" y="288" width="48" height="160" rx="4" fill="#b2afae"/>
  <rect x="240" y="312" width="48" height="136" rx="4" fill="#46838c" opacity="0.45"/>
  <rect x="312" y="336" width="48" height="112" rx="4" fill="#2dd4bf" opacity="0.5"/>
  <rect x="384" y="356" width="48" height="92" rx="4" fill="#c8f542" opacity="0.55"/>
  <text x="120" y="468" text-anchor="middle" font-family="Inter, system-ui, sans-serif" font-size="10" fill="#898683">Q1</text>
  <text x="192" y="468" text-anchor="middle" font-family="Inter, system-ui, sans-serif" font-size="10" fill="#898683">Q2</text>
  <text x="264" y="468" text-anchor="middle" font-family="Inter, system-ui, sans-serif" font-size="10" fill="#898683">Q3</text>
  <text x="336" y="468" text-anchor="middle" font-family="Inter, system-ui, sans-serif" font-size="10" fill="#898683">Q4</text>
  <text x="408" y="468" text-anchor="middle" font-family="Inter, system-ui, sans-serif" font-size="10" fill="#898683">Q5</text>
  <text x="400" y="248" font-family="Inter, system-ui, sans-serif" font-size="18" font-weight="500" fill="#46838c">-62%</text>
  <text x="56" y="522" font-family="ui-monospace, monospace" font-size="10" fill="#b2afae">AiRAT &#183; illustrative</text>
</svg>
