<svg xmlns="http://www.w3.org/2000/svg" width="560" height="560" viewBox="0 0 560 560" fill="none" role="img" aria-labelledby="title desc">
  <title id="title">Streaming and CDC data paths</title>
  <desc id="desc">AiRAT console showing change-data-capture streams from operational databases into analytical stores.</desc>
  <rect width="560" height="560" fill="#f7f7f5"/>
  <rect x="24" y="24" width="512" height="512" fill="#fff" stroke="#e8e6e1"/>
  <text x="56" y="72" font-family="Inter, system-ui, sans-serif" font-size="15" font-weight="500" fill="#1a1a18">Streaming and CDC paths</text>
  <text x="56" y="92" font-family="ui-monospace, monospace" font-size="11" fill="#898683">Operational sources to analytical stores in near real time</text>
  <rect x="56" y="120" width="128" height="360" rx="10" fill="#f3f2ef" stroke="#e8e6e1"/>
  <text x="72" y="148" font-family="Inter, system-ui, sans-serif" font-size="12" font-weight="500" fill="#1a1a18">Sources</text>
  <rect x="72" y="164" width="96" height="28" rx="6" fill="#fff" stroke="#e8e6e1"/>
  <rect x="72" y="204" width="96" height="28" rx="6" fill="#fff" stroke="#e8e6e1"/>
  <rect x="72" y="244" width="96" height="28" rx="6" fill="#fff" stroke="#e8e6e1"/>
  <rect x="72" y="284" width="96" height="28" rx="6" fill="#fff" stroke="#e8e6e1"/>
  <rect x="216" y="120" width="288" height="200" rx="10" fill="#fafaf8" stroke="#e8e6e1"/>
  <text x="232" y="148" font-family="Inter, system-ui, sans-serif" font-size="12" font-weight="500" fill="#1a1a18">CDC stream</text>
  <path d="M184 178h32M184 218h32M184 258h32M184 298h32" stroke="#46838c" stroke-width="2"/>
  <path d="M232 178h220M232 218h180M232 258h200M232 298h160" stroke="#2dd4bf" stroke-width="3"/>
  <circle cx="248" cy="178" r="5" fill="#c8f542"/>
  <circle cx="248" cy="218" r="5" fill="#c8f542"/>
  <circle cx="248" cy="258" r="5" fill="#c8f542"/>
  <circle cx="248" cy="298" r="5" fill="#c8f542"/>
  <rect x="216" y="336" width="288" height="144" rx="10" fill="#1a1a18"/>
  <text x="232" y="364" font-family="Inter, system-ui, sans-serif" font-size="12" font-weight="500" fill="#c8f542">Analytical store</text>
  <rect x="232" y="380" width="256" height="12" rx="6" fill="#2dd4bf" opacity="0.55"/>
  <rect x="232" y="404" width="220" height="12" rx="6" fill="#46838c" opacity="0.7"/>
  <rect x="232" y="428" width="180" height="12" rx="6" fill="#f7f7f5" opacity="0.2"/>
  <text x="232" y="456" font-family="Inter, system-ui, sans-serif" font-size="11" fill="#928e8b">Lag: 42s &#183; freshness SLO met</text>
  <text x="56" y="522" font-family="ui-monospace, monospace" font-size="10" fill="#b2afae">AiRAT &#183; illustrative</text>
</svg>
