<svg xmlns="http://www.w3.org/2000/svg" width="560" height="560" viewBox="0 0 560 560" fill="none" role="img" aria-labelledby="title desc">
  <title id="title">Board-ready evidence trails</title>
  <desc id="desc">AiRAT immutable evidence chain with timestamps, actors, and audit events for board and regulator review.</desc>
  <rect width="560" height="560" fill="#f7f7f5"/>
  <rect x="24" y="24" width="512" height="512" fill="#fff" stroke="#e8e6e1"/>
  <text x="56" y="72" font-family="Inter, system-ui, sans-serif" font-size="15" font-weight="500" fill="#1a1a18">Board-ready evidence trails</text>
  <text x="56" y="92" font-family="ui-monospace, monospace" font-size="11" fill="#898683">Immutable chain &#183; auditor-readable</text>
  <line x1="88" y1="128" x2="88" y2="468" stroke="#e8e6e1" stroke-width="3"/>
  <circle cx="88" cy="148" r="10" fill="#c8f542" stroke="#1a1a18"/>
  <rect x="120" y="128" width="368" height="56" rx="8" fill="#fafaf8" stroke="#e8e6e1"/>
  <text x="136" y="152" font-family="Inter, system-ui, sans-serif" font-size="11" fill="#898683">09:14 UTC</text>
  <text x="136" y="172" font-family="Inter, system-ui, sans-serif" font-size="12" font-weight="500" fill="#1a1a18">Alert correlated across 3 sources</text>
  <circle cx="88" cy="228" r="10" fill="#2dd4bf" stroke="#46838c"/>
  <rect x="120" y="208" width="368" height="56" rx="8" fill="#fafaf8" stroke="#e8e6e1"/>
  <text x="136" y="232" font-family="Inter, system-ui, sans-serif" font-size="11" fill="#898683">09:16 UTC</text>
  <text x="136" y="252" font-family="Inter, system-ui, sans-serif" font-size="12" font-weight="500" fill="#1a1a18">Playbook executed &#183; host isolated</text>
  <circle cx="88" cy="328" r="10" fill="#46838c" stroke="#1a1a18"/>
  <rect x="120" y="308" width="368" height="56" rx="8" fill="#1a1a18"/>
  <text x="136" y="332" font-family="Inter, system-ui, sans-serif" font-size="11" fill="#928e8b">09:18 UTC</text>
  <text x="136" y="352" font-family="Inter, system-ui, sans-serif" font-size="12" font-weight="500" fill="#c8f542">Analyst approval recorded</text>
  <circle cx="88" cy="428" r="10" fill="#f7f7f5" stroke="#1a1a18"/>
  <rect x="120" y="408" width="368" height="56" rx="8" fill="#fafaf8" stroke="#e8e6e1"/>
  <text x="136" y="432" font-family="Inter, system-ui, sans-serif" font-size="11" fill="#898683">09:22 UTC</text>
  <text x="136" y="452" font-family="Inter, system-ui, sans-serif" font-size="12" font-weight="500" fill="#1a1a18">Evidence pack exported for audit</text>
  <text x="56" y="522" font-family="ui-monospace, monospace" font-size="10" fill="#b2afae">AiRAT &#183; illustrative</text>
</svg>
