<svg xmlns="http://www.w3.org/2000/svg" width="560" height="560" viewBox="0 0 560 560" fill="none" role="img" aria-labelledby="title desc">
  <title id="title">OpenSearch-scale search console</title>
  <desc id="desc">AiRAT search operations dashboard with index health, query latency, and shard throughput at scale.</desc>
  <rect width="560" height="560" fill="#f7f7f5"/>
  <rect x="24" y="24" width="512" height="512" fill="#fff" stroke="#e8e6e1"/>
  <text x="56" y="72" font-family="Inter, system-ui, sans-serif" font-size="15" font-weight="500" fill="#1a1a18">OpenSearch-scale search</text>
  <text x="56" y="92" font-family="ui-monospace, monospace" font-size="11" fill="#898683">Index health &#183; query latency &#183; shard throughput</text>
  <rect x="56" y="120" width="200" height="48" rx="8" fill="#fafaf8" stroke="#e8e6e1"/>
  <rect x="72" y="136" width="120" height="6" rx="3" fill="#d4d2cc"/>
  <rect x="72" y="150" width="80" height="4" rx="2" fill="#e8e6e1"/>
  <rect x="272" y="120" width="88" height="48" rx="8" fill="#fafaf8" stroke="#e8e6e1"/>
  <text x="286" y="150" font-family="Inter, system-ui, sans-serif" font-size="18" font-weight="500" fill="#1a1a18">12ms</text>
  <rect x="376" y="120" width="128" height="48" rx="8" fill="#fafaf8" stroke="#e8e6e1"/>
  <text x="390" y="150" font-family="Inter, system-ui, sans-serif" font-size="18" font-weight="500" fill="#46838c">99.9%</text>
  <rect x="56" y="184" width="448" height="296" rx="10" fill="#fafaf8" stroke="#e8e6e1"/>
  <text x="72" y="212" font-family="Inter, system-ui, sans-serif" font-size="12" font-weight="500" fill="#1a1a18">Query volume</text>
  <path d="M72 440 L120 380 L168 392 L216 320 L264 340 L312 260 L360 280 L408 220 L456 240 L488 200" stroke="#2dd4bf" stroke-width="3" fill="none"/>
  <path d="M72 456 L120 420 L168 428 L216 380 L264 388 L312 340 L360 348 L408 300 L456 312" stroke="#c8f542" stroke-width="2" fill="none" opacity="0.75"/>
  <rect x="72" y="228" width="96" height="20" rx="4" fill="#2dd4bf" opacity="0.2"/>
  <rect x="180" y="228" width="96" height="20" rx="4" fill="#c8f542" opacity="0.2"/>
  <text x="56" y="522" font-family="ui-monospace, monospace" font-size="10" fill="#b2afae">AiRAT &#183; illustrative</text>
</svg>
