<svg xmlns="http://www.w3.org/2000/svg" width="560" height="940" viewBox="0 0 560 940" fill="none" role="img" aria-labelledby="title desc">
  <title id="title">Vertical integration workflow into intelligence engine</title>
  <desc id="desc">Top-to-bottom workflow showing vendor logos ingested, normalized, correlated, and routed through the intelligence engine.</desc>
  <defs>
<symbol id="logo-aws" viewBox="0 0 24 24">
    <path d="M6.763 10.036q.002.446.088.71c.064.176.144.368.256.576c.04.063.056.127.056.183q.002.12-.152.24l-.503.335a.4.4 0 0 1-.208.072q-.12-.002-.239-.112a2.5 2.5 0 0 1-.287-.375a6 6 0 0 1-.248-.471q-.934 1.101-2.347 1.101c-.67 0-1.205-.191-1.596-.574q-.588-.575-.59-1.533c0-.678.239-1.23.726-1.644c.487-.415 1.133-.623 1.955-.623c.272 0 .551.024.846.064c.296.04.6.104.918.176v-.583q-.001-.909-.375-1.277c-.255-.248-.686-.367-1.3-.367c-.28 0-.568.031-.863.103q-.443.106-.862.272a2 2 0 0 1-.28.104a.5.5 0 0 1-.127.023q-.168.002-.168-.247v-.391c0-.128.016-.224.056-.28a.6.6 0 0 1 .224-.167a4.6 4.6 0 0 1 1.005-.36a4.8 4.8 0 0 1 1.246-.151c.95 0 1.644.216 2.091.647q.66.645.662 1.963v2.586zm-3.24 1.214c.263 0 .534-.048.822-.144a1.8 1.8 0 0 0 .758-.51a1.3 1.3 0 0 0 .272-.512c.047-.191.08-.423.08-.694v-.335a7 7 0 0 0-.735-.136a6 6 0 0 0-.75-.048c-.535 0-.926.104-1.19.32c-.263.215-.39.518-.39.917c0 .375.095.655.295.846c.191.2.47.296.838.296m6.41.862c-.144 0-.24-.024-.304-.08c-.064-.048-.12-.16-.168-.311L7.586 5.55a1.4 1.4 0 0 1-.072-.32c0-.128.064-.2.191-.2h.783q.227-.001.31.08c.065.048.113.16.16.312l1.342 5.284l1.245-5.284q.058-.24.151-.312a.55.55 0 0 1 .32-.08h.638c.152 0 .256.025.32.08c.063.048.12.16.151.312l1.261 5.348l1.381-5.348q.074-.24.16-.312a.52.52 0 0 1 .311-.08h.743c.127 0 .2.065.2.2c0 .04-.009.08-.017.128a1 1 0 0 1-.056.2l-1.923 6.17q-.072.24-.168.311a.5.5 0 0 1-.303.08h-.687c-.151 0-.255-.024-.32-.08c-.063-.056-.119-.16-.15-.32l-1.238-5.148l-1.23 5.14c-.04.16-.087.264-.15.32c-.065.056-.177.08-.32.08zm10.256.215c-.415 0-.83-.048-1.229-.143c-.399-.096-.71-.2-.918-.32c-.128-.071-.215-.151-.247-.223a.6.6 0 0 1-.048-.224v-.407c0-.167.064-.247.183-.247q.072 0 .144.024c.048.016.12.048.2.08q.408.181.878.279c.319.064.63.096.95.096c.502 0 .894-.088 1.165-.264a.86.86 0 0 0 .415-.758a.78.78 0 0 0-.215-.559c-.144-.151-.416-.287-.807-.415l-1.157-.36c-.583-.183-1.014-.454-1.277-.813a1.9 1.9 0 0 1-.4-1.158q0-.502.216-.886c.144-.255.335-.479.575-.654c.24-.184.51-.32.83-.415c.32-.096.655-.136 1.006-.136c.175 0 .359.008.535.032c.183.024.35.056.518.088q.24.058.455.127q.216.072.336.144a.7.7 0 0 1 .24.2a.43.43 0 0 1 .071.263v.375q-.002.254-.184.256a.8.8 0 0 1-.303-.096a3.65 3.65 0 0 0-1.532-.311c-.455 0-.815.071-1.062.223s-.375.383-.375.71c0 .224.08.416.24.567c.159.152.454.304.877.44l1.134.358c.574.184.99.44 1.237.767s.367.702.367 1.117c0 .343-.072.655-.207.926a2.2 2.2 0 0 1-.583.703c-.248.2-.543.343-.886.447c-.36.111-.734.167-1.142.167m1.509 3.88c-2.626 1.94-6.442 2.969-9.722 2.969c-4.598 0-8.74-1.7-11.87-4.526c-.247-.223-.024-.527.272-.351c3.384 1.963 7.559 3.153 11.877 3.153c2.914 0 6.114-.607 9.06-1.852c.439-.2.814.287.383.607m1.094-1.246c-.336-.43-2.22-.207-3.074-.103c-.255.032-.295-.192-.063-.36c1.5-1.053 3.967-.75 4.254-.399c.287.36-.08 2.826-1.485 4.007c-.215.184-.423.088-.327-.151c.32-.79 1.03-2.57.695-2.994" fill="currentColor"/>
  </symbol>
<symbol id="logo-azure" viewBox="0 0 24 24">
    <path d="M22.379 23.343a1.62 1.62 0 0 0 1.536-2.14v.002L17.35 1.76A1.62 1.62 0 0 0 15.816.657H8.184A1.62 1.62 0 0 0 6.65 1.76L.086 21.204a1.62 1.62 0 0 0 1.536 2.139h4.741a1.62 1.62 0 0 0 1.535-1.103l.977-2.892l4.947 3.675c.28.208.618.32.966.32m-3.084-12.531l3.624 10.739a.54.54 0 0 1-.51.713v-.001h-.03a.54.54 0 0 1-.322-.106l-9.287-6.9h4.853m6.313 7.006c.116-.326.13-.694.007-1.058L9.79 1.76l-.007-.02h6.034a.54.54 0 0 1 .512.366l6.562 19.445a.54.54 0 0 1-.338.684" fill="currentColor"/>
  </symbol>
<symbol id="logo-gcp" viewBox="0 0 24 24">
    <path d="M12.19 2.38a9.344 9.344 0 0 0-9.234 6.893c.053-.02-.055.013 0 0c-3.875 2.551-3.922 8.11-.247 10.941l.006-.007l-.007.03a6.7 6.7 0 0 0 4.077 1.356h5.173l.03.03h5.192c6.687.053 9.376-8.605 3.835-12.35a9.37 9.37 0 0 0-2.821-4.552l-.043.043l.006-.05A9.34 9.34 0 0 0 12.19 2.38m-.358 4.146c1.244-.04 2.518.368 3.486 1.15a5.19 5.19 0 0 1 1.862 4.078v.518c3.53-.07 3.53 5.262 0 5.193h-5.193l-.008.009v-.04H6.785a2.6 2.6 0 0 1-1.067-.23h.001a2.597 2.597 0 1 1 3.437-3.437l3.013-3.012A6.75 6.75 0 0 0 8.11 8.24c.018-.01.04-.026.054-.023a5.2 5.2 0 0 1 3.67-1.69z" fill="currentColor"/>
  </symbol>
<symbol id="logo-paloalto" viewBox="0 0 24 24">
    <path d="m10.278 15.443l1.705 1.705l-3.426 3.426l-3.427-3.426l8.592-8.591l-1.705-1.705l3.426-3.426l3.427 3.426zM0 12.017l3.426 3.426l8.591-8.59l-3.426-3.427zm11.983 5.13l3.426 3.427L24 11.983l-3.426-3.426z" fill="currentColor"/>
  </symbol>
<symbol id="logo-fortinet" viewBox="0 0 24 24">
    <path d="M0 9.785h6.788v4.454H0zm8.666-6.33h6.668v4.453H8.666zm0 12.637h6.668v4.454H8.666zm8.522-6.307H24v4.454h-6.812zM2.792 3.455C1.372 3.814.265 5.404 0 7.425v.506h6.788V3.454zM0 16.091v.554c.24 1.926 1.276 3.466 2.624 3.9h4.188v-4.454zm24-8.184v-.506c-.265-1.998-1.372-3.587-2.792-3.972h-4.02v4.454H24zM21.376 20.57c1.324-.458 2.36-1.974 2.624-3.9v-.554h-6.812v4.454Z" fill="currentColor"/>
  </symbol>
<symbol id="logo-cisco" viewBox="0 0 24 24">
    <path d="M16.331 18.171V17.06l-.022.01c-.25.121-.522.19-.801.203a1.2 1.2 0 0 1-.806-.237a1.04 1.04 0 0 1-.352-.498a1.2 1.2 0 0 1-.023-.667c.052-.225.178-.426.357-.569c.16-.134.355-.218.562-.242a1.85 1.85 0 0 1 1.061.198l.024.013v-1.117l-.051-.014a2.9 2.9 0 0 0-1.011-.132a2.3 2.3 0 0 0-.903.206c-.287.132-.54.327-.739.571a2.22 2.22 0 0 0-.04 2.705c.295.378.709.645 1.175.756c.491.12 1.006.102 1.487-.052zm-10.995 0V17.06l-.022.01c-.25.121-.522.19-.801.203a1.18 1.18 0 0 1-.806-.237a1.03 1.03 0 0 1-.351-.498a1.2 1.2 0 0 1-.024-.667c.052-.225.177-.426.357-.569c.16-.134.355-.218.562-.242a1.85 1.85 0 0 1 1.061.198l.024.013v-1.117l-.051-.014a2.9 2.9 0 0 0-1.011-.132a2.3 2.3 0 0 0-.903.206a2.1 2.1 0 0 0-.74.571a2.224 2.224 0 0 0-.041 2.705a2.1 2.1 0 0 0 1.176.756c.491.12 1.005.102 1.487-.052zm3.924-.922l-.004.957l.07.012q.33.061.664.085q.293.028.587.012q.282-.021.551-.104c.21-.06.405-.163.571-.305a1.16 1.16 0 0 0 .333-.478a1.3 1.3 0 0 0-.007-.96a1.1 1.1 0 0 0-.298-.414a1.3 1.3 0 0 0-.438-.255l-.722-.268a.4.4 0 0 1-.197-.188a.25.25 0 0 1 .008-.219a.4.4 0 0 1 .154-.142a.8.8 0 0 1 .257-.074q.23-.034.46.005q.27.03.533.096l.038.008v-.883l-.069-.015a5 5 0 0 0-.543-.097a2.8 2.8 0 0 0-.714-.003c-.3.027-.585.143-.821.33c-.16.126-.281.293-.351.484c-.104.29-.105.608 0 .899q.082.219.252.381q.146.14.327.236q.236.126.497.195q.086.026.17.054l.085.031l.024.01c.084.03.162.078.226.14q.068.064.101.151a.3.3 0 0 1 .001.161a.34.34 0 0 1-.166.198a.9.9 0 0 1-.275.086a2 2 0 0 1-.427.021a5 5 0 0 1-.557-.074a9 9 0 0 1-.287-.067zm-2.475.995h1.05v-4.167h-1.05zm12.162-2.936a1.095 1.095 0 0 1 1.541.158a1.094 1.094 0 0 1-.157 1.541l-.017.014a1.096 1.096 0 0 1-1.367-1.713m-1.525.854a2.193 2.193 0 0 0 2.666 2.107a2.139 2.139 0 0 0 .701-3.937a2.207 2.207 0 0 0-3.367 1.83m5.539-5.434a.52.52 0 0 0 1.039 0V9.573a.52.52 0 0 0-1.039 0zm-2.844 0a.522.522 0 0 0 1.041 0V8.139a.521.521 0 0 0-1.04 0v2.589m-2.887 1.043a.521.521 0 0 0 1.039 0V6.17a.52.52 0 0 0-1.039 0zm-2.838-1.043a.521.521 0 0 0 1.04 0V8.139a.52.52 0 0 0-1.039 0zm-2.9 0a.522.522 0 0 0 1.039 0V9.573a.52.52 0 0 0-1.039 0zm-2.87 0a.52.52 0 0 0 1.039 0V8.139a.52.52 0 0 0-1.039 0zm-2.887 1.043a.52.52 0 0 0 1.039 0V6.17a.52.52 0 0 0-1.039 0zm-2.861-1.043a.522.522 0 0 0 1.04 0V8.139a.52.52 0 0 0-1.039 0zm-2.877 0a.521.521 0 0 0 1.039 0V9.573a.52.52 0 0 0-1.039 0z" fill="currentColor"/>
  </symbol>
<symbol id="logo-okta" viewBox="0 0 24 24">
    <path d="M12 0C5.389 0 0 5.35 0 12s5.35 12 12 12s12-5.35 12-12S18.611 0 12 0m0 18c-3.325 0-6-2.675-6-6s2.675-6 6-6s6 2.675 6 6s-2.675 6-6 6" fill="currentColor"/>
  </symbol>
<symbol id="logo-keycloak" viewBox="0 0 24 24">
    <path d="m18.742 1.182l-12.493.002C4.155 4.784 2.079 8.393 0 12.002c2.071 3.612 4.162 7.214 6.252 10.816l12.49-.004l3.089-5.404h2.158v-.002H24L23.996 6.59h-2.168zM8.327 4.792h2.081l1.04 1.8l-3.12 5.413l3.117 5.403l-1.035 1.81H8.327a2048 2048 0 0 0-4.168-7.204zm6.241 0l2.086.003q2.088 3.608 4.166 7.222l-4.167 7.2h-2.08c-.382-.562-1.038-1.808-1.038-1.808l3.123-5.405l-3.124-5.413z" fill="currentColor"/>
  </symbol>
<symbol id="logo-k8s" viewBox="0 0 24 24">
    <path d="m10.204 14.35l.007.01l-.999 2.413a5.17 5.17 0 0 1-2.075-2.597l2.578-.437l.004.005a.44.44 0 0 1 .484.606zm-.833-2.129a.44.44 0 0 0 .173-.756l.002-.011L7.585 9.7a5.14 5.14 0 0 0-.73 3.255l2.514-.725zm1.145-1.98a.44.44 0 0 0 .699-.337l.01-.005l.15-2.62a5.14 5.14 0 0 0-3.01 1.442l2.147 1.523zm.76 2.75l.723.349l.722-.347l.18-.78l-.5-.623h-.804l-.5.623l.179.779zm1.5-3.095a.44.44 0 0 0 .7.336l.008.003l2.134-1.513a5.2 5.2 0 0 0-2.992-1.442l.148 2.615zm10.876 5.97l-5.773 7.181a1.6 1.6 0 0 1-1.248.594l-9.261.003a1.6 1.6 0 0 1-1.247-.596l-5.776-7.18a1.58 1.58 0 0 1-.307-1.34L2.1 5.573c.108-.47.425-.864.863-1.073L11.305.513a1.6 1.6 0 0 1 1.385 0l8.345 3.985c.438.209.755.604.863 1.073l2.062 8.955c.108.47-.005.963-.308 1.34m-3.289-2.057c-.042-.01-.103-.026-.145-.034c-.174-.033-.315-.025-.479-.038c-.35-.037-.638-.067-.895-.148c-.105-.04-.18-.165-.216-.216l-.201-.059a6.5 6.5 0 0 0-.105-2.332a6.5 6.5 0 0 0-.936-2.163c.052-.047.15-.133.177-.159c.008-.09.001-.183.094-.282c.197-.185.444-.338.743-.522c.142-.084.273-.137.415-.242c.032-.024.076-.062.11-.089c.24-.191.295-.52.123-.736s-.506-.236-.745-.045c-.034.027-.08.062-.111.088c-.134.116-.217.23-.33.35c-.246.25-.45.458-.673.609c-.097.056-.239.037-.303.033l-.19.135a6.55 6.55 0 0 0-4.146-2.003l-.012-.223c-.065-.062-.143-.115-.163-.25c-.022-.268.015-.557.057-.905c.023-.163.061-.298.068-.475c.001-.04-.001-.099-.001-.142c0-.306-.224-.555-.5-.555c-.275 0-.499.249-.499.555l.001.014c0 .041-.002.092 0 .128c.006.177.044.312.067.475c.042.348.078.637.056.906a.55.55 0 0 1-.162.258l-.012.211a6.42 6.42 0 0 0-4.166 2.003l-.18-.128c-.09.012-.18.04-.297-.029c-.223-.15-.427-.358-.673-.608c-.113-.12-.195-.234-.329-.349l-.111-.088a.6.6 0 0 0-.348-.132a.48.48 0 0 0-.398.176c-.172.216-.117.546.123.737l.007.005l.104.083c.142.105.272.159.414.242c.299.185.546.338.743.522c.076.082.09.226.1.288l.16.143a6.46 6.46 0 0 0-1.02 4.506l-.208.06c-.055.072-.133.184-.215.217c-.257.081-.546.11-.895.147c-.164.014-.305.006-.48.039c-.037.007-.09.02-.133.03l-.004.002l-.007.002c-.295.071-.484.342-.423.608c.061.267.349.429.645.365l.007-.001l.01-.003l.129-.029c.17-.046.294-.113.448-.172c.33-.118.604-.217.87-.256c.112-.009.23.069.288.101l.217-.037a6.5 6.5 0 0 0 2.88 3.596l-.09.218c.033.084.069.199.044.282c-.097.252-.263.517-.452.813c-.091.136-.185.242-.268.399c-.02.037-.045.095-.064.134c-.128.275-.034.591.213.71c.248.12.556-.007.69-.282v-.002c.02-.039.046-.09.062-.127c.07-.162.094-.301.144-.458c.132-.332.205-.68.387-.897c.05-.06.13-.082.215-.105l.113-.205a6.45 6.45 0 0 0 4.609.012l.106.192c.086.028.18.042.256.155c.136.232.229.507.342.84c.05.156.074.295.145.457c.016.037.043.09.062.129c.133.276.442.402.69.282c.247-.118.341-.435.213-.71c-.02-.039-.045-.096-.065-.134c-.083-.156-.177-.261-.268-.398c-.19-.296-.346-.541-.443-.793c-.04-.13.007-.21.038-.294c-.018-.022-.059-.144-.083-.202a6.5 6.5 0 0 0 2.88-3.622c.064.01.176.03.213.038c.075-.05.144-.114.28-.104c.266.039.54.138.87.256c.154.06.277.128.448.173c.036.01.088.019.13.028l.009.003l.007.001c.297.064.584-.098.645-.365c.06-.266-.128-.537-.423-.608M16.4 9.701l-1.95 1.746v.005a.44.44 0 0 0 .173.757l.003.01l2.526.728a5.2 5.2 0 0 0-.108-1.674A5.2 5.2 0 0 0 16.4 9.7zm-4.013 5.325a.44.44 0 0 0-.404-.232a.44.44 0 0 0-.372.233h-.002l-1.268 2.292a5.16 5.16 0 0 0 3.326.003l-1.27-2.296zm1.888-1.293a.44.44 0 0 0-.27.036a.44.44 0 0 0-.214.572l-.003.004l1.01 2.438a5.15 5.15 0 0 0 2.081-2.615l-2.6-.44z" fill="currentColor"/>
  </symbol>
<symbol id="logo-docker" viewBox="0 0 24 24">
    <path d="M13.983 11.078h2.119a.186.186 0 0 0 .186-.185V9.006a.186.186 0 0 0-.186-.186h-2.119a.185.185 0 0 0-.185.185v1.888c0 .102.083.185.185.185m-2.954-5.43h2.118a.186.186 0 0 0 .186-.186V3.574a.186.186 0 0 0-.186-.185h-2.118a.185.185 0 0 0-.185.185v1.888c0 .102.082.185.185.185m0 2.716h2.118a.187.187 0 0 0 .186-.186V6.29a.186.186 0 0 0-.186-.185h-2.118a.185.185 0 0 0-.185.185v1.887c0 .102.082.185.185.186m-2.93 0h2.12a.186.186 0 0 0 .184-.186V6.29a.185.185 0 0 0-.185-.185H8.1a.185.185 0 0 0-.185.185v1.887c0 .102.083.185.185.186m-2.964 0h2.119a.186.186 0 0 0 .185-.186V6.29a.185.185 0 0 0-.185-.185H5.136a.186.186 0 0 0-.186.185v1.887c0 .102.084.185.186.186m5.893 2.715h2.118a.186.186 0 0 0 .186-.185V9.006a.186.186 0 0 0-.186-.186h-2.118a.185.185 0 0 0-.185.185v1.888c0 .102.082.185.185.185m-2.93 0h2.12a.185.185 0 0 0 .184-.185V9.006a.185.185 0 0 0-.184-.186h-2.12a.185.185 0 0 0-.184.185v1.888c0 .102.083.185.185.185m-2.964 0h2.119a.185.185 0 0 0 .185-.185V9.006a.185.185 0 0 0-.184-.186h-2.12a.186.186 0 0 0-.186.186v1.887c0 .102.084.185.186.185m-2.92 0h2.12a.185.185 0 0 0 .184-.185V9.006a.185.185 0 0 0-.184-.186h-2.12a.185.185 0 0 0-.184.185v1.888c0 .102.082.185.185.185M23.763 9.89c-.065-.051-.672-.51-1.954-.51q-.508.001-1.01.087c-.248-1.7-1.653-2.53-1.716-2.566l-.344-.199l-.226.327c-.284.438-.49.922-.612 1.43c-.23.97-.09 1.882.403 2.661c-.595.332-1.55.413-1.744.42H.751a.75.75 0 0 0-.75.748a11.4 11.4 0 0 0 .692 4.062c.545 1.428 1.355 2.48 2.41 3.124c1.18.723 3.1 1.137 5.275 1.137a15.7 15.7 0 0 0 2.93-.266a12.3 12.3 0 0 0 3.823-1.389a10.5 10.5 0 0 0 2.61-2.136c1.252-1.418 1.998-2.997 2.553-4.4h.221c1.372 0 2.215-.549 2.68-1.009c.309-.293.55-.65.707-1.046l.098-.288Z" fill="currentColor"/>
  </symbol>
<symbol id="logo-prometheus" viewBox="0 0 24 24">
    <path d="M12 0C5.373 0 0 5.372 0 12c0 6.627 5.373 12 12 12s12-5.373 12-12c0-6.628-5.373-12-12-12m0 22.46c-1.885 0-3.414-1.26-3.414-2.814h6.828c0 1.553-1.528 2.813-3.414 2.813zm5.64-3.745H6.36v-2.046h11.28zm-.04-3.098H6.391q-.056-.064-.111-.13c-1.155-1.401-1.427-2.133-1.69-2.879c-.005-.025 1.4.287 2.395.511c0 0 .513.119 1.262.255c-.72-.843-1.147-1.915-1.147-3.01c0-2.406 1.845-4.508 1.18-6.207c.648.053 1.34 1.367 1.387 3.422c.689-.951.977-2.69.977-3.755c0-1.103.727-2.385 1.454-2.429c-.648 1.069.168 1.984.894 4.256c.272.854.237 2.29.447 3.201c.07-1.892.395-4.652 1.595-5.605c-.529 1.2.079 2.702.494 3.424c.671 1.164 1.078 2.047 1.078 3.716a4.64 4.64 0 0 1-1.11 2.996c.792-.149 1.34-.283 1.34-.283l2.573-.502s-.374 1.538-1.81 3.019z" fill="currentColor"/>
  </symbol>
<symbol id="logo-opensearch" viewBox="0 0 24 24">
    <path d="M23.152 8.813a.85.85 0 0 0-.849.848c0 6.982-5.66 12.642-12.642 12.642a.849.849 0 0 0 0 1.697C17.581 24 24 17.58 24 9.661a.85.85 0 0 0-.848-.848M18.03 14.25c.816-1.331 1.606-3.106 1.45-5.59c-.32-5.147-4.983-9.052-9.385-8.63C8.372.197 6.602 1.601 6.76 4.118c.068 1.093.603 1.738 1.473 2.234c.828.473 1.891.772 3.097 1.11c1.456.41 3.145.87 4.444 1.827c1.556 1.147 2.62 2.476 2.257 4.961m-16.56-9C.653 6.581-.136 8.356.02 10.84c.321 5.147 4.983 9.052 9.385 8.629c1.723-.166 3.492-1.57 3.335-4.087c-.068-1.093-.603-1.738-1.473-2.234c-.828-.473-1.891-.772-3.097-1.11c-1.456-.41-3.145-.87-4.444-1.827C2.17 9.064 1.106 7.735 1.47 5.25" fill="currentColor"/>
  </symbol>
<symbol id="logo-elastic" viewBox="0 0 24 24">
    <path d="M13.394 0C8.683 0 4.609 2.716 2.644 6.667h15.641a4.77 4.77 0 0 0 3.073-1.11c.446-.375.864-.785 1.247-1.243l.001-.002A11.97 11.97 0 0 0 13.394 0M1.804 8.889a12 12 0 0 0 0 6.222h14.7a3.111 3.111 0 1 0 0-6.222zm.84 8.444C4.61 21.283 8.684 24 13.395 24c3.701 0 7.011-1.677 9.212-4.312l-.001-.002a10 10 0 0 0-1.247-1.243a4.77 4.77 0 0 0-3.073-1.11z" fill="currentColor"/>
  </symbol>
<symbol id="logo-microsoft" viewBox="0 0 24 24">
    <path d="M0 0v11.408h11.408V0zm12.594 0v11.408H24V0zM0 12.594V24h11.408V12.594zm12.594 0V24H24V12.594z" fill="currentColor"/>
  </symbol>
<symbol id="logo-crowdstrike" viewBox="0 0 24 24">
    <path d="M12 2.5c-3.2 2.8-5.5 6.2-6.8 9.8 1.4-.8 3-1.2 4.8-1.2 2.9 0 5.4 1.1 7.4 2.9C16.2 10.4 14.4 6.2 12 2.5zm-1.2 12.1c-2.1 0-4 .7-5.5 1.9 1.8 2.4 4.6 3.9 7.7 3.9 3.4 0 6.4-1.8 8.1-4.5-1.8-1.2-4-1.9-6.3-1.9-1.1 0-2.2.2-3.2.6-.5.2-1 .3-1.5.3-.1 0-.2 0-.3-.3z" fill="#E01E5A"/>
  </symbol>
<symbol id="logo-wazuh" viewBox="0 0 24 24">
    <path d="M12 3.5L3.5 20h3.4l1.6-2.8h7l1.6 2.8H20.5L12 3.5zm-3 11.2L12 10l3 4.7H9z" fill="#3B48CC"/>
  </symbol>
<symbol id="logo-sentinelone" viewBox="0 0 24 24">
    <path d="M12 2a10 10 0 100 20 10 10 0 000-20zm0 3.2a6.8 6.8 0 110 13.6 6.8 6.8 0 010-13.6z" fill="#5B14B8"/>
    <path d="M12 8.2a3.8 3.8 0 100 7.6 3.8 3.8 0 000-7.6z" fill="#5B14B8"/>
  </symbol>
<symbol id="logo-checkpoint" viewBox="0 0 24 24">
    <path d="M12 2.2L4 6.2v6.1c0 4.8 3.4 9.3 8 10.7 4.6-1.4 8-5.9 8-10.7V6.2L12 2.2zm-1.2 12.5l-3.4-3.4 1.4-1.4 2 2 4.8-4.8 1.4 1.4-6.2 6.2z" fill="#E31E24"/>
  </symbol>
<symbol id="logo-defender" viewBox="0 0 24 24">
    <path d="M12 2.2L4 6.2v6.1c0 4.8 3.4 9.3 8 10.7 4.6-1.4 8-5.9 8-10.7V6.2L12 2.2z" fill="#0078D4"/>
    <g transform="translate(7 7) scale(0.42)">
      <path d="M0 0v11.408h11.408V0zm12.594 0v11.408H24V0zM0 12.594V24h11.408V12.594zm12.594 0V24H24V12.594z" fill="#fff"/>
    </g>
  </symbol>
<symbol id="logo-entra" viewBox="0 0 24 24">
    <path d="M4 4h7v7H4zm9 0h7v7h-7zM4 13h7v7H4zm9 0h7v7h-7z" fill="#0078D4"/>
    <path d="M6.5 6.5h2v2h-2zm9 0h2v2h-2zm-9 9h2v2h-2zm9 0h2v2h-2z" fill="#50E6FF"/>
  </symbol>
    <marker id="arrowhead-down" markerWidth="8" markerHeight="8" refX="4" refY="7" orient="auto"><path d="M0 0 L8 4 L0 8 Z" fill="#46838c" transform="rotate(90 4 4)"/></marker>
  </defs>
  <rect width="560" height="940" fill="#f7f7f5"/>
  <rect x="16" y="16" width="528" height="908" fill="#fff" stroke="#e8e6e1"/>
  <text x="40" y="50" font-family="Inter, system-ui, sans-serif" font-size="15" font-weight="500" fill="#1a1a18">Connect everything</text>
  <text x="40" y="70" font-family="ui-monospace, monospace" font-size="10" fill="#898683">100+ integrations &#183; one intelligence layer</text>
  <rect x="32" y="84" width="496" height="378" fill="#fafaf8" stroke="#e8e6e1"/>
  <text x="48" y="108" font-family="Inter, system-ui, sans-serif" font-size="12" font-weight="500" fill="#1a1a18">Source integrations</text>
  <text x="40" y="132" font-family="ui-monospace, monospace" font-size="9" fill="#898683">CLOUD</text>
<g transform="translate(52 138)" role="img" aria-label="AWS"><rect width="44" height="44" rx="8" fill="#fff" stroke="#e8e6e1"/><use href="#logo-aws" x="10" y="10" width="24" height="24" fill="#232F3E"/></g>
<g transform="translate(104 138)" role="img" aria-label="Azure"><rect width="44" height="44" rx="8" fill="#fff" stroke="#e8e6e1"/><use href="#logo-azure" x="10" y="10" width="24" height="24" fill="#0078D4"/></g>
<g transform="translate(156 138)" role="img" aria-label="GCP"><rect width="44" height="44" rx="8" fill="#fff" stroke="#e8e6e1"/><use href="#logo-gcp" x="10" y="10" width="24" height="24" fill="#4285F4"/></g>
  <text x="40" y="198" font-family="ui-monospace, monospace" font-size="9" fill="#898683">SECURITY</text>
<g transform="translate(52 204)" role="img" aria-label="Wazuh"><rect width="44" height="44" rx="8" fill="#fff" stroke="#e8e6e1"/><use href="#logo-wazuh" x="10" y="10" width="24" height="24"/></g>
<g transform="translate(104 204)" role="img" aria-label="CrowdStrike"><rect width="44" height="44" rx="8" fill="#fff" stroke="#e8e6e1"/><use href="#logo-crowdstrike" x="10" y="10" width="24" height="24"/></g>
<g transform="translate(156 204)" role="img" aria-label="SentinelOne"><rect width="44" height="44" rx="8" fill="#fff" stroke="#e8e6e1"/><use href="#logo-sentinelone" x="10" y="10" width="24" height="24"/></g>
<g transform="translate(208 204)" role="img" aria-label="Defender"><rect width="44" height="44" rx="8" fill="#fff" stroke="#e8e6e1"/><use href="#logo-defender" x="10" y="10" width="24" height="24"/></g>
  <text x="40" y="264" font-family="ui-monospace, monospace" font-size="9" fill="#898683">NETWORK</text>
<g transform="translate(52 270)" role="img" aria-label="Palo Alto"><rect width="44" height="44" rx="8" fill="#fff" stroke="#e8e6e1"/><use href="#logo-paloalto" x="10" y="10" width="24" height="24" fill="#FA582D"/></g>
<g transform="translate(104 270)" role="img" aria-label="Fortinet"><rect width="44" height="44" rx="8" fill="#fff" stroke="#e8e6e1"/><use href="#logo-fortinet" x="10" y="10" width="24" height="24" fill="#EE3124"/></g>
<g transform="translate(156 270)" role="img" aria-label="Cisco"><rect width="44" height="44" rx="8" fill="#fff" stroke="#e8e6e1"/><use href="#logo-cisco" x="10" y="10" width="24" height="24" fill="#1BA0D7"/></g>
<g transform="translate(208 270)" role="img" aria-label="Check Point"><rect width="44" height="44" rx="8" fill="#fff" stroke="#e8e6e1"/><use href="#logo-checkpoint" x="10" y="10" width="24" height="24"/></g>
  <text x="40" y="330" font-family="ui-monospace, monospace" font-size="9" fill="#898683">IDENTITY</text>
<g transform="translate(52 336)" role="img" aria-label="Entra ID"><rect width="44" height="44" rx="8" fill="#fff" stroke="#e8e6e1"/><use href="#logo-entra" x="10" y="10" width="24" height="24"/></g>
<g transform="translate(104 336)" role="img" aria-label="Okta"><rect width="44" height="44" rx="8" fill="#fff" stroke="#e8e6e1"/><use href="#logo-okta" x="10" y="10" width="24" height="24" fill="#007DC1"/></g>
<g transform="translate(156 336)" role="img" aria-label="Keycloak"><rect width="44" height="44" rx="8" fill="#fff" stroke="#e8e6e1"/><use href="#logo-keycloak" x="10" y="10" width="24" height="24" fill="#4D4D4D"/></g>
  <text x="40" y="396" font-family="ui-monospace, monospace" font-size="9" fill="#898683">OBSERVABILITY</text>
<g transform="translate(52 402)" role="img" aria-label="Kubernetes"><rect width="44" height="44" rx="8" fill="#fff" stroke="#e8e6e1"/><use href="#logo-k8s" x="10" y="10" width="24" height="24" fill="#326CE5"/></g>
<g transform="translate(104 402)" role="img" aria-label="Docker"><rect width="44" height="44" rx="8" fill="#fff" stroke="#e8e6e1"/><use href="#logo-docker" x="10" y="10" width="24" height="24" fill="#2496ED"/></g>
<g transform="translate(156 402)" role="img" aria-label="Prometheus"><rect width="44" height="44" rx="8" fill="#fff" stroke="#e8e6e1"/><use href="#logo-prometheus" x="10" y="10" width="24" height="24" fill="#E6522C"/></g>
<g transform="translate(208 402)" role="img" aria-label="OpenSearch"><rect width="44" height="44" rx="8" fill="#fff" stroke="#e8e6e1"/><use href="#logo-opensearch" x="10" y="10" width="24" height="24" fill="#005EB8"/></g>
<g transform="translate(260 402)" role="img" aria-label="Elastic"><rect width="44" height="44" rx="8" fill="#fff" stroke="#e8e6e1"/><use href="#logo-elastic" x="10" y="10" width="24" height="24" fill="#005571"/></g>
<path d="M 280 462 L 280 474" stroke="#46838c" stroke-width="2" opacity="0.7" marker-end="url(#arrowhead-down)"/>
<g transform="translate(192 474)"><rect width="176" height="50" fill="#fff" stroke="#e8e6e1"/><text x="88" y="22" text-anchor="middle" font-family="Inter, system-ui, sans-serif" font-size="12" font-weight="500" fill="#1a1a18">Ingest</text><text x="88" y="38" text-anchor="middle" font-family="ui-monospace, monospace" font-size="9" fill="#898683">Collect telemetry</text></g>
<path d="M 280 526 L 280 538" stroke="#46838c" stroke-width="2" opacity="0.7" marker-end="url(#arrowhead-down)"/>
<g transform="translate(192 542)"><rect width="176" height="50" fill="#fff" stroke="#e8e6e1"/><text x="88" y="22" text-anchor="middle" font-family="Inter, system-ui, sans-serif" font-size="12" font-weight="500" fill="#1a1a18">Normalize</text><text x="88" y="38" text-anchor="middle" font-family="ui-monospace, monospace" font-size="9" fill="#898683">Schema + enrich</text></g>
<path d="M 280 594 L 280 606" stroke="#46838c" stroke-width="2" opacity="0.7" marker-end="url(#arrowhead-down)"/>
<g transform="translate(192 610)"><rect width="176" height="50" fill="#fff" stroke="#e8e6e1"/><text x="88" y="22" text-anchor="middle" font-family="Inter, system-ui, sans-serif" font-size="12" font-weight="500" fill="#1a1a18">Correlate</text><text x="88" y="38" text-anchor="middle" font-family="ui-monospace, monospace" font-size="9" fill="#898683">Link attack paths</text></g>
<path d="M 280 662 L 280 674" stroke="#46838c" stroke-width="2" opacity="0.7" marker-end="url(#arrowhead-down)"/>
  <g transform="translate(230 678)"><circle cx="50" cy="50" r="46" fill="#fafaf8" stroke="#46838c" stroke-width="2"/><circle cx="50" cy="50" r="32" fill="none" stroke="#1a1a18" stroke-width="1.5" stroke-dasharray="5 4" opacity="0.35"/><text x="50" y="46" text-anchor="middle" font-family="Inter, system-ui, sans-serif" font-size="12" font-weight="500" fill="#1a1a18">Intelligence</text><text x="50" y="62" text-anchor="middle" font-family="ui-monospace, monospace" font-size="9" fill="#898683">ENGINE</text></g>
<path d="M 280 778 L 280 778" stroke="#46838c" stroke-width="2" opacity="0.7" marker-end="url(#arrowhead-down)"/>
<g transform="translate(180 786)"><rect width="200" height="50" fill="#fff" stroke="#e8e6e1"/><text x="100" y="22" text-anchor="middle" font-family="Inter, system-ui, sans-serif" font-size="12" font-weight="500" fill="#1a1a18">Respond</text><text x="100" y="38" text-anchor="middle" font-family="ui-monospace, monospace" font-size="9" fill="#898683">Triage &#183; investigate &#183; act</text></g>
  <rect x="32" y="848" width="496" height="72" fill="#fafaf8" stroke="#e8e6e1"/>
  <text x="48" y="870" font-family="ui-monospace, monospace" font-size="9" fill="#898683">FLOW</text>
  <text x="48" y="888" font-family="Inter, system-ui, sans-serif" font-size="11" fill="#1a1a18">Endpoint &#183; cloud &#183; network &#183; identity telemetry</text>
  <text x="48" y="906" font-family="Inter, system-ui, sans-serif" font-size="11" font-weight="500" fill="#46838c">Correlate once &#183; respond everywhere</text>
  <text x="40" y="920" font-family="ui-monospace, monospace" font-size="9" fill="#b2afae">AiRAT &#183; illustrative</text>
</svg>