<svg xmlns="http://www.w3.org/2000/svg" width="256" height="256" viewBox="6 6 108 108" fill="none">
  <rect x="6" y="6" width="108" height="108" rx="14" fill="#d2e0d4"/>
  <rect x="22" y="20" width="76" height="80" rx="2" fill="#f4f1eb"/>
  <circle cx="60" cy="60" r="9" fill="#f6dce2" stroke="#111318" stroke-width="1.8"/>
  <circle cx="39" cy="42" r="6" stroke="#111318" stroke-width="1.6"/>
  <circle cx="81" cy="42" r="6" stroke="#111318" stroke-width="1.6"/>
  <circle cx="38" cy="78" r="6" stroke="#111318" stroke-width="1.6"/>
  <rect x="74" y="72" width="14" height="12" rx="2.2" stroke="#111318" stroke-width="1.6"/>
  <path d="M44 45l10 10M76 45l-10 10M44 75l10-10M74 77l-8-9" stroke="#111318" stroke-width="1.8" stroke-linecap="round"/>
  <path d="M34 34c2-3 8-3 10 0M76 34c2-3 8-3 10 0" stroke="#111318" stroke-width="1.3" stroke-linecap="round"/>
</svg>
