<svg xmlns="http://www.w3.org/2000/svg" width="256" height="256" viewBox="6 6 108 108" fill="none">
  <rect x="6" y="6" width="108" height="108" rx="14" fill="#d4d8e8"/>
  <rect x="22" y="20" width="76" height="80" rx="2" fill="#f4f1eb"/>
  <rect x="30" y="34" width="40" height="20" rx="4" stroke="#111318" stroke-width="1.8"/>
  <path d="M40 54l-2 5 6-4" stroke="#111318" stroke-width="1.6" stroke-linecap="round" stroke-linejoin="round"/>
  <path d="M48 41c0-2 1.7-3.2 3.8-3.2 2 0 3.8 1 3.8 3 0 2.4-2.8 2.9-2.8 4.8" stroke="#111318" stroke-width="1.8" stroke-linecap="round"/>
  <circle cx="52" cy="48.3" r="1" fill="#111318"/>
  <rect x="75" y="56" width="15" height="15" rx="2" stroke="#111318" stroke-width="1.6"/>
  <path d="M78.2 63.5l2.4 2.4 5-5" stroke="#111318" stroke-width="1.8" stroke-linecap="round" stroke-linejoin="round"/>
  <path d="M32 76h26M32 82h20M60 76h26M60 82h24" stroke="#111318" stroke-width="1.6" stroke-linecap="round"/>
</svg>
